<?xml version="1.0" encoding="utf-8"?>
<!-- Generator: Adobe Illustrator 22.1.0, SVG Export Plug-In . SVG Version: 6.00 Build 0)  -->
<svg version="1.1" id="Layer_1" xmlns="http://www.w3.org/2000/svg" xmlns:xlink="http://www.w3.org/1999/xlink" x="0px" y="0px"
	 viewBox="0 0 841.9 1190.6" style="enable-background:new 0 0 841.9 1190.6;" xml:space="preserve">
<style type="text/css">
	.st0{fill:#F06020;}
	.st1{fill:#FFFFFF;}
	.st2{fill:none;stroke:#FFFFFF;stroke-width:2;stroke-linecap:round;stroke-miterlimit:10;}
	.st3{fill:none;stroke:#FFFFFF;stroke-width:4;stroke-miterlimit:10;}
</style>
<rect x="293" y="219" class="st0" width="320" height="320"/>
<g>
	<path class="st1" d="M511,293.3c-27.8-21.4-88.2-18.7-115.5,5c-17.6,15.1-19.9,36.6-6.3,60.5l16.9,28.7l1.8-6.1l0.7-1.6l-14.4-24.1
		c-12-21.4-10.4-39.7,5-53c25.7-21.9,82.4-24.4,108.3-4.5c13.1,10.2,15.6,24.6,7,42c-0.9,1.4,0,3.2,1.4,4.1c1.4,0.9,3.2,0,4.1-1.4
		C529.5,322.8,526.6,305.2,511,293.3z"/>
	<path class="st1" d="M450.1,418.5l2.9-5.2l0.7-1.1L423.4,356c-0.7-0.9-1.6-1.6-2.9-1.6c-1.1,0-2.3,0.9-2.7,2l-8.1,25.5l-2.5,7.7
		l-16.7,53.3c-0.5,1.6,0.5,3.2,2,3.8c0.2,0,0.7,0.2,0.9,0.2c1.1,0,2.5-0.9,2.9-2l15.1-48.1l2.7-7.7l7.4-23.9L450.1,418.5z"/>
	<g>
		<polyline class="st1" points="454.8,427.1 454.8,427.3 455,426.9 		"/>
		<path class="st1" d="M512.4,354.9c-1.4-0.9-3.2-0.2-4.1,1.1l-10.8,20.8l-4.1,7.7l-27.1,51.5l-6.8-12.9l-2.7,5l-0.9,1.4l7.7,14.4
			c0.7,0.9,1.6,1.6,2.7,1.6c1.1,0,2.3-0.7,2.7-1.6l27.1-51.2l4.1-7.4l13.8-26.2C514.4,357.3,513.7,355.5,512.4,354.9z"/>
	</g>
	<path class="st1" d="M458.2,420.8l29.3-55.7l5,16.7l2.9-5.6l0.9-1.8l-5.4-17.8c-0.5-1.1-1.4-2-2.7-2c-1.1-0.2-2.5,0.5-2.9,1.6
		l-30.5,58.2l-3.4,6.5l-8.8,16.5l-27.1-45.8l-1.8,5.9l-0.7,1.8l27.1,45.6c0.7,0.9,1.6,1.6,2.7,1.4c0.9,0,2-0.7,2.7-1.6l9.3-17.6
		L458.2,420.8z"/>
	<path class="st1" d="M518.2,444.9l-17.6-57.5l-2.9,5.9l-0.9,1.6l15.8,51.7c8.6,30.2-5,47.2-17.8,55.7c-24.8,16.9-66.8,16.9-89.6,0
		c-9.7-7-19.6-20.5-12.6-42.4c0.5-1.6-0.5-3.2-2-3.8c-1.6-0.5-3.2,0.5-3.8,2c-6.5,19.9-1.1,37.5,14.7,49.2c12.4,9.3,30,14,47.8,14
		c17.6,0,35.7-4.7,48.7-13.8C518.4,493.4,525.4,471.3,518.2,444.9z"/>
</g>
<rect x="362" y="265.5" class="st0" width="209.6" height="20"/>
<path class="st2" d="M419.5,287.1c9.2-1.8,16.4-0.9,23.2-3.5c5.9-2.3,7.6-6.6,7.1-12.3"/>
<path class="st3" d="M424.7,173.5v74.2h16.3c0,27.8,17.6,27.8,17.9,0H475l1.1-74.2"/>
</svg>
