<?xml version="1.0" encoding="utf-8"?>
<!-- Generator: Adobe Illustrator 22.1.0, SVG Export Plug-In . SVG Version: 6.00 Build 0)  -->
<svg version="1.1" id="Layer_1" xmlns="http://www.w3.org/2000/svg" xmlns:xlink="http://www.w3.org/1999/xlink" x="0px" y="0px"
	 viewBox="0 0 841.9 1190.6" style="enable-background:new 0 0 841.9 1190.6;" xml:space="preserve">
<style type="text/css">
	.st0{enable-background:new    ;}
	.st1{fill:none;stroke:#000000;stroke-width:16;stroke-miterlimit:10;}
	.st2{fill:none;stroke:#FFFFFF;stroke-width:24;stroke-miterlimit:10;}
	.st3{fill:none;stroke:#000000;stroke-width:11;stroke-miterlimit:10;}
	.st4{fill:#FFFFFF;}
	.st5{font-family:'MyriadPro-Regular';}
	.st6{font-size:14.4493px;}
</style>
<g class="st0">
	<path d="M375.9,456c-7.8,10.1-13.3,10.7-21.1,13.9c-36.4,15-90.9-14.7-79.9-48.2c15-2,16.4,9.8,20.5,20.8
		c8.9,23.4,58.3,19.3,69.8-0.6c13-22.5,9.8-62.9-6.3-79.4c-12.7-10.1-43.9,1.4-39-23.7c21.9,3.8,32-6.1,43-17.3
		c14.4-14.7,28.3-58.9,0.6-67.2c-28.6-8.7-44.2,13-57.1,30.6c-4.6,0.6-5.8-1.2-7.8-4c-2-15.6,13.6-28.9,29.7-36.4
		c54.3-25.1,69,18.5,60.9,56c-0.9,4.3-2.6,9.8-6.6,16.7c-6.6,11.8-11,23.1-23.7,26.8C388.3,363.9,401.6,422.8,375.9,456z"/>
	<path d="M437.4,354.7c0.3-33.8,0.6-68.1,1.7-107.6c55.4-9.2,109.1,16.2,130.4,65.8c9.8,43,6.3,94.1-14.7,125
		c-11.8,17.6-26.8,27.7-51.1,31.5c-21.1,3.2-49.6,3.2-67.2-2.6C431.9,425.4,436.8,391.6,437.4,354.7z M558.9,362.8
		c2-36.1-10.7-73.9-49.9-94.7c-15.9-8.4-41.3-4.6-54.8-6.9c-0.9,31.7-1.2,55.1-0.9,84.3c0.3,35.5-1.7,69.8-1.2,110.5
		c14.4-1.2,48.8,4.9,68.7-3.8C547.6,440.4,558.3,396.5,558.9,362.8z"/>
</g>
<g class="st0">
	<path d="M287,553c-4.9,0.5-3.5-3.2-3.7-6.4c-0.4-6.2-0.1-11-0.4-16c-0.1-3.6,0.1-8.7,0.2-12.5c0-7.1-0.6-13.3,0.1-20.6
		c9.7-1.1,21.2-0.6,28.9,4.6c8.9,6,4.3,22.5-2.7,27.4c-4.7,3.3-16.6,2.8-22.5,1.9C286.6,540.7,288.4,544.7,287,553z M312.5,518.8
		c1.8-6.4,0.6-12.5-4.6-14.8c-6-2.7-14.1-3-20.7-2.6c-0.9,1.1-0.4,1.4-0.6,2.9c-0.6,5.5,0.6,15.2,0,23c7.1,0.4,13.4,1.9,19.4,0
		C308,526.8,311.7,521.7,312.5,518.8z"/>
	<path d="M358.6,553.2c-3.9,1.3-3.5-1-5.5-7.8c-1.6-5.3-3-10-4.6-15.8c-5.6,0.9-12.2,0.4-17.4,0c-0.1,5.5,0.1,15.8-0.6,23.5
		c-3,0.6-3.4,0.1-3.5-1.1c-0.3-8.6-0.2-18-0.1-24.8c0.3-10.1-0.1-19.4,0.7-29.2c2.7,0.2,4.5-0.8,9.8-0.6
		c17.7,0.7,19.7,4.5,23.1,10.8c5.1,8.9-1.7,17.6-8.6,19.7C353.3,537.1,358.2,544.3,358.6,553.2z M359,511.9
		c-3.6-8.3-10.4-11.7-27.6-10.2c0.3,8.2-1,15-0.6,24.1c17.6,2.2,23.1-0.4,27.7-8.6C358.9,516,359.4,514.2,359,511.9z"/>
	<path d="M373,531.9c-0.6-11.5-0.9-23.9,0.4-33.8c4.1-1,3.6,0.9,3.2,6.6c-0.1,0.6-0.7,39.3,0.6,48c0.1,0.6-3.7,0.3-3.7,0
		C372.8,547.6,373.3,537.9,373,531.9z"/>
	<path d="M417.4,552.6c-7.7-8.6-11.1-16.3-16.8-27.6c-2.2-4.4-5.8-9-7.6-13.2c-1.2,10.2,0.9,34.3-0.4,41c-0.6-0.3-3.6,0.5-3.5-0.5
		c0.6-7.2-0.3-26.4,0.1-35.4c0.1-2.1,0.1-4.2-0.1-6c-0.2-4.4,0-7.8,0-11.1c0.1-0.1,0.8,0.1,2.1,0.1c2.2,0.1,5.2,11.1,7.6,14.5
		c6,8.9,7.4,16.5,19.1,32c-0.3-3.6-0.9-8.7-0.6-12.8c0.9-10.1-0.4-23.9,0-34.3c0-0.4,1.3-0.4,3.5-0.1c0.5,0.2-0.1,6.4,0.1,8.1
		c-0.4,7.8,0.2,13.8,0.1,21.7c-0.2,7.8,0.4,16.3,0.1,23.5C421,552.8,419.7,553.2,417.4,552.6z"/>
	<path d="M446.4,529.6c0.4,7.7,0.5,14.9,0.1,23c-0.4,1-3.2,0.9-4.1,0.3c-0.4-14-0.6-32.1-0.1-50.8c-5.3-0.9-7.8,0.3-13.2,0.6
		c-4.6-7.1,10.9-3.4,14.8-4.5c4.9,0.4,7.6,0.4,14.4-0.1c0.9,0.9,2.2,1.7,1.9,3.2c-0.6,3-9.4-0.3-13.7,1
		C446.2,509.9,446,520.6,446.4,529.6z"/>
	<path d="M469.4,531.9c-0.6-11.5-0.9-23.9,0.4-33.8c4.1-1,3.6,0.9,3.2,6.6c-0.1,0.6-0.7,39.3,0.6,48c0.1,0.6-3.7,0.3-3.7,0
		C469.3,547.6,469.8,537.9,469.4,531.9z"/>
	<path d="M513.9,552.6c-7.7-8.6-11.1-16.3-16.8-27.6c-2.2-4.4-5.8-9-7.6-13.2c-1.2,10.2,0.9,34.3-0.4,41c-0.6-0.3-3.6,0.5-3.5-0.5
		c0.6-7.2-0.3-26.4,0.1-35.4c0.1-2.1,0.1-4.2-0.1-6c-0.2-4.4,0-7.8,0-11.1c0.1-0.1,0.8,0.1,2.1,0.1c2.2,0.1,5.2,11.1,7.6,14.5
		c6,8.9,7.4,16.5,19.1,32c-0.3-3.6-0.9-8.7-0.6-12.8c0.9-10.1-0.4-23.9,0-34.3c0-0.4,1.3-0.4,3.5-0.1c0.5,0.2-0.1,6.4,0.1,8.1
		c-0.4,7.8,0.2,13.8,0.1,21.7c-0.2,7.8,0.4,16.3,0.1,23.5C517.5,552.8,516.2,553.2,513.9,552.6z"/>
	<path d="M553.4,501.1c-5.4-2.9-12-1.5-15.1,2.1c-2.6,2.9-7.4,14.1-8.2,19c-1.7,11.4,4.4,25.1,11.4,28.2c9.5,4.2,17.6-6.3,18.2-16.3
		c-2.1-0.6-14.5,1.2-14.5,0c0-1.8-0.5-3.2,0-3.2c5.8-0.1,14.8-0.6,18.7-0.1c-1.7,12.2-6,22.6-16.8,23.6c-1.7,0.1-4-0.1-5.3-0.6
		c-1.1-0.5-3.3-0.7-5.5-3c-1.8-1.8-6.4-6.6-7.6-10.2c-0.5-1.4-0.7-3.3-1.3-5c-1.2-3.9-1.8-8.1-1.4-13.4c0.7-8.1,7.8-20.1,12.8-24.9
		c15.8-6.3,27.8,10.3,23.7,14.4C560,512.3,557.8,503.4,553.4,501.1z"/>
</g>
<path class="st1" d="M480,176.3c40,0,118.3,0,158.3,0V879H209.6V176.3h261.3c17,0,52.1-7.8,50.6-42.3"/>
<path class="st2" d="M470.9,176.3c17,0,52.1-7.8,50.6-42.3"/>
<path class="st1" d="M469.9,176.3c17,0,52.1-7.8,50.6-42.3"/>
<path class="st3" d="M478.7,0v104.6h26.6c0,39.2,28.7,39.2,29.1,0h26.2L562.4,0"/>
<g class="st0">
	<path d="M216.2,906.7c0.1,2.6,0.2,5,0,7.7c-0.1,0.3-1.1,0.3-1.4,0.1c-0.1-4.7-0.2-10.7,0-16.9c-1.8-0.3-2.6,0.1-4.4,0.2
		c-1.5-2.4,3.6-1.1,4.9-1.5c1.6,0.1,2.5,0.1,4.8,0c0.3,0.3,0.7,0.6,0.6,1.1c-0.2,1-3.1-0.1-4.6,0.3
		C216.1,900.2,216,903.7,216.2,906.7z"/>
	<path d="M234.1,914.5c-0.1-0.2-0.1-0.1-0.3-0.8c-0.7-1.6-0.7-2.9-1.4-4.5c-2.6,0.2-5.8-0.3-7.6,0c-0.6,0.6-0.6,1.6-1,2.4
		c-0.1,0.2-1,2.9-1.1,2.9c-0.3,0.2-1.1,0-1.2-0.1c1.1-3,2.6-7.2,3.4-10.1c0.1-0.3,1.6-4.2,2.5-6.7c0.2-0.6,0.2-1.8,1.3-1.8
		c1.1,1.7,2.4,6.5,2.8,7.4c0.4,1.8,1.2,2.8,2.1,5.5c0.6,1.8,1.2,3.1,1.5,4.8c0,0.4,0.8,1.2-0.2,1.1
		C234.5,914.6,234.3,914.6,234.1,914.5z M224.8,907.9c2.4-0.2,3.1,0.2,4.9,0.1c0.4,0,1.8,0,2.2-0.1c-1.3-3-2.4-6.3-3.5-9.6
		C227,901.4,225.8,904.6,224.8,907.9z"/>
	<path d="M237.8,914.3c-0.3-2.3,0.1-4.6,0-7.2c0.4-3-1.2-11.1,0.4-10.7c1.1-0.2,0.8,1.2,0.9,3.5c0.1,3.1,0.1,5.9,0,9.8
		c0,0.9-0.2,2.1,0,3.4c1.3,0.1,2.2,0.3,3.3,0.2c1.4-0.1,2.5-0.3,4.3-0.3c0.1,0.2,0.4,1,0,1.4C243.9,914.2,240.8,914.9,237.8,914.3z"
		/>
	<path d="M249.7,914.3c-0.3-2.3,0.1-4.6,0-7.2c0.4-3-1.2-11.1,0.4-10.7c1.1-0.2,0.8,1.2,0.9,3.5c0.1,3.1,0.1,5.9,0,9.8
		c0,0.9-0.2,2.1,0,3.4c1.3,0.1,2.2,0.3,3.3,0.2c1.4-0.1,2.5-0.3,4.3-0.3c0.1,0.2,0.4,1,0,1.4C255.8,914.2,252.7,914.9,249.7,914.3z"
		/>
	<path d="M269,914.7c-2.5,0-4.9,0-7.2-0.2c-0.1-2.1-0.3-4.3-0.2-6.5c0.1-3.7,0.3-7.1,0.4-11.9c2.9-0.3,8.1,0.1,9.5,0.1
		c0,0,0.1,0.8,0,1.1c-4.3,0.3-7.5-0.1-8.2,0c-0.4,2.1,0.2,5.1-0.2,7.3c0.7,0.3,1.6,0,2.6,0c0.5,0,1.2,0.1,1.8,0.1
		c1.1,0,2.3-0.3,2.1,0.4c0.1,1.1-0.7,0.6-1.5,0.8c-2.1-0.2-2.9,0-5,0.1c-0.1,2.2-0.3,5.4,0,7.7c2.4,0.9,5-0.4,8.5,0.2
		c0,0.2,0,0.6,0,0.7C270.8,915,269.9,914.7,269,914.7z"/>
	<path d="M285.5,914.6c-1.3,0.4-1.2-0.3-1.8-2.6c-0.5-1.8-1-3.3-1.5-5.3c-1.9,0.3-4.1,0.1-5.8,0c0,1.8,0,5.3-0.2,7.8
		c-1,0.2-1.1,0-1.2-0.4c-0.1-2.9-0.1-6,0-8.3c0.1-3.4,0-6.5,0.2-9.7c0.9,0.1,1.5-0.3,3.3-0.2c5.9,0.2,6.6,1.5,7.7,3.6
		c1.7,3-0.6,5.9-2.9,6.6C283.7,909.2,285.4,911.6,285.5,914.6z M285.6,900.8c-1.2-2.8-3.5-3.9-9.2-3.4c0.1,2.7-0.3,5-0.2,8
		c5.9,0.7,7.7-0.1,9.2-2.9C285.6,902.2,285.8,901.6,285.6,900.8z"/>
	<path d="M297.2,914.7c-2.5,0-4.9,0-7.2-0.2c-0.1-2.1-0.3-4.3-0.2-6.5c0.1-3.7,0.3-7.1,0.4-11.9c2.9-0.3,8.1,0.1,9.5,0.1
		c0,0,0.1,0.8,0,1.1c-4.3,0.3-7.5-0.1-8.2,0c-0.4,2.1,0.2,5.1-0.2,7.3c0.7,0.3,1.6,0,2.6,0c0.5,0,1.2,0.1,1.8,0.1
		c1.1,0,2.3-0.3,2.1,0.4c0.1,1.1-0.7,0.6-1.5,0.8c-2.1-0.2-2.9,0-5,0.1c-0.1,2.2-0.3,5.4,0,7.7c2.4,0.9,5-0.4,8.5,0.2
		c0,0.2,0,0.6,0,0.7C299,915,298.1,914.7,297.2,914.7z"/>
	<path d="M312.5,899.1c-1.8-3.1-7.3-1.7-7.8-0.8c-0.7,0.8-1.5,2.9-0.8,3.8c1,1.3,3.5,1.2,5.2,1.7c0.4,0.1,1.2,0.4,1.2,0.4
		c2.3,1.2,4.8,2.7,3.4,6.8c-1,2-1.9,3-3.6,3.5c-1.1,0.3-4,0.3-5.3-0.1c-1.8-0.6-3.2-2.5-3-5c0.2-0.1,0.6-0.2,0.9-0.2
		c0.4,1,0.2,1.9,0.9,2.9c1.2,1.6,5.2,1.8,6.9,0.7c1.2-0.8,2.5-2.6,2.3-4.7c-0.1-1.2-2.1-2.4-3.6-3c-2-0.7-4.6-0.4-5.8-1.7
		c-1.5-1.5-1.4-4.3,0.4-6c1-0.9,1.7-1.4,3.3-1.5c0.4,0,0.9-0.1,1.1-0.1c2.1,0.1,4,0.5,5.1,2.2c0.7,0.9,1.1,1.8,1.1,3
		c-0.4,0.2-0.7,0.2-0.9,0.3C313.1,900.9,313,900,312.5,899.1z"/>
	<path d="M332.7,897.2c-1.8-1-4-0.5-5,0.7c-0.9,1-2.5,4.7-2.7,6.3c-0.6,3.8,1.5,8.4,3.8,9.4c3.2,1.4,5.9-2.1,6.1-5.4
		c-0.7-0.2-4.8,0.4-4.8,0c0-0.6-0.2-1.1,0-1.1c1.9,0,4.9-0.2,6.2,0c-0.6,4.1-2,7.5-5.6,7.9c-0.6,0-1.3,0-1.8-0.2
		c-0.4-0.2-1.1-0.2-1.8-1c-0.6-0.6-2.1-2.2-2.5-3.4c-0.2-0.5-0.2-1.1-0.4-1.7c-0.4-1.3-0.6-2.7-0.5-4.5c0.2-2.7,2.6-6.7,4.3-8.3
		c5.3-2.1,9.3,3.4,7.9,4.8C334.9,900.9,334.2,898,332.7,897.2z"/>
	<path d="M349.6,914.6c-1.3,0.4-1.2-0.3-1.8-2.6c-0.5-1.8-1-3.3-1.5-5.3c-1.9,0.3-4.1,0.1-5.8,0c0,1.8,0,5.3-0.2,7.8
		c-1,0.2-1.1,0-1.2-0.4c-0.1-2.9-0.1-6,0-8.3c0.1-3.4,0-6.5,0.2-9.7c0.9,0.1,1.5-0.3,3.3-0.2c5.9,0.2,6.6,1.5,7.7,3.6
		c1.7,3-0.6,5.9-2.9,6.6C347.8,909.2,349.4,911.6,349.6,914.6z M349.7,900.8c-1.2-2.8-3.5-3.9-9.2-3.4c0.1,2.7-0.3,5-0.2,8
		c5.9,0.7,7.7-0.1,9.2-2.9C349.7,902.2,349.8,901.6,349.7,900.8z"/>
	<path d="M364.6,914.5c-0.1-0.2-0.1-0.1-0.3-0.8c-0.7-1.6-0.7-2.9-1.4-4.5c-2.6,0.2-5.8-0.3-7.6,0c-0.6,0.6-0.6,1.6-1,2.4
		c-0.1,0.2-1,2.9-1.1,2.9c-0.3,0.2-1.1,0-1.2-0.1c1.1-3,2.6-7.2,3.4-10.1c0.1-0.3,1.6-4.2,2.5-6.7c0.2-0.6,0.2-1.8,1.3-1.8
		c1.1,1.7,2.4,6.5,2.8,7.4c0.4,1.8,1.2,2.8,2.1,5.5c0.6,1.8,1.2,3.1,1.5,4.8c0,0.4,0.8,1.2-0.2,1.1
		C365,914.6,364.8,914.6,364.6,914.5z M355.3,907.9c2.4-0.2,3.1,0.2,4.9,0.1c0.4,0,1.8,0,2.2-0.1c-1.3-3-2.4-6.3-3.5-9.6
		C357.5,901.4,356.3,904.6,355.3,907.9z"/>
	<path d="M372.8,906.7c0.1,2.6,0.2,5,0,7.7c-0.1,0.3-1.1,0.3-1.4,0.1c-0.1-4.7-0.2-10.7,0-16.9c-1.8-0.3-2.6,0.1-4.4,0.2
		c-1.5-2.4,3.6-1.1,4.9-1.5c1.6,0.1,2.5,0.1,4.8,0c0.3,0.3,0.7,0.6,0.6,1.1c-0.2,1-3.1-0.1-4.6,0.3
		C372.7,900.2,372.7,903.7,372.8,906.7z"/>
	<path d="M381.4,896.8c0,3.9-0.9,10.5,0.8,14c0.9,1.9,3.3,3.8,5.4,2.8c2.5-1.2,3.5-7.2,3.3-11.4c-0.1-1.8-0.1-4.3,0-5.9
		c1.3,0.2,1.1-0.5,1.1,0.5c0,1.9,0.2,5.4,0.1,7.7c-0.1,3-1.1,7.2-2.3,8.9c-0.7,1-2.3,1.9-4.2,1.6c-2.9-0.3-4.6-2.8-5.2-5.2
		c-0.7-2.9-0.6-6.2-0.4-9.8c0.1-1.8,0-2.9,0.1-3.8C381.6,896.5,381.4,895.7,381.4,896.8z"/>
	<path d="M397,907.5c-0.2-3.8-0.3-8,0.1-11.3c1.4-0.3,1.2,0.3,1.1,2.2c0,0.2-0.2,13.1,0.2,16c0,0.2-1.2,0.1-1.2,0
		C397,912.7,397.1,909.5,397,907.5z"/>
	<path d="M406.9,906.7c0.1,2.6,0.2,5,0,7.7c-0.1,0.3-1.1,0.3-1.4,0.1c-0.1-4.7-0.2-10.7,0-16.9c-1.8-0.3-2.6,0.1-4.4,0.2
		c-1.5-2.4,3.6-1.1,4.9-1.5c1.6,0.1,2.5,0.1,4.8,0c0.3,0.3,0.7,0.6,0.6,1.1c-0.2,1-3.1-0.1-4.6,0.3
		C406.8,900.2,406.8,903.7,406.9,906.7z"/>
	<path d="M423.6,913.4c-0.6,0.4-0.8,0.5-1.7,0.8c-0.6,0.1-1.1,0.5-1.4,0.5c-2.8,0.5-4.8-0.9-5.8-2.4c-0.2-0.3-0.4-0.5-0.6-0.8
		s-0.3-0.8-0.5-1.1c-0.6-1.5-0.2-3.5,0-5.4c0.3-2.7,0.8-5.8,2.6-7.7c0.6-0.6,1.5-1.3,2.1-1.4c0.9-0.1,2.3,0,3,0.2
		c3.4,0.8,5.1,4.4,5.1,8.6C426.5,907.3,425.3,912.1,423.6,913.4z M419.7,913.6c0.9,0,3-1.1,3.1-1.2c0.9-0.8,2.7-5.2,2.7-7.5
		c0-0.2-0.1-0.2-0.1-0.5c-0.1-2.8-0.7-4.4-2.2-6.1c-1.3-0.9-4-1.8-5.5-0.5c-2.3,1.7-3.4,7.6-3.2,11.3
		C414.7,911.5,417.2,913.8,419.7,913.6z"/>
	<path d="M439.3,899.1c-1.8-3.1-7.3-1.7-7.8-0.8c-0.7,0.8-1.5,2.9-0.8,3.8c1,1.3,3.5,1.2,5.2,1.7c0.4,0.1,1.2,0.4,1.2,0.4
		c2.3,1.2,4.8,2.7,3.4,6.8c-1,2-1.9,3-3.6,3.5c-1.1,0.3-4,0.3-5.3-0.1c-1.8-0.6-3.2-2.5-3-5c0.2-0.1,0.6-0.2,0.9-0.2
		c0.4,1,0.2,1.9,0.9,2.9c1.2,1.6,5.2,1.8,6.9,0.7c1.2-0.8,2.5-2.6,2.3-4.7c-0.1-1.2-2.1-2.4-3.6-3c-2-0.7-4.6-0.4-5.8-1.7
		c-1.5-1.5-1.4-4.3,0.4-6c1-0.9,1.7-1.4,3.3-1.5c0.4,0,0.9-0.1,1.1-0.1c2.1,0.1,4,0.5,5.1,2.2c0.7,0.9,1.1,1.8,1.1,3
		c-0.4,0.2-0.7,0.2-0.9,0.3C439.9,900.9,439.9,900,439.3,899.1z"/>
</g>
<g class="st0">
	<path d="M719.9,1089.6c1-2.1,1.4-3.8,2.2-5.6c1.4-3.1,2.1-6.1,3.6-9.1c0,0,0.9-1,1.1-0.2c-0.1,0.6-0.3,11.9-0.2,12.9
		c0.1,1.4,0.1,3.5,0,5.6c-0.6,0-0.8,0-1.1-0.1c-0.5-5.7-0.3-10.3,0.1-14.5c-1.1,2.2-1.8,5.6-3.4,9.1c-0.1,0.6-1.7,4.5-2.1,5.1
		c-0.2,0.1-0.1,0.2-0.5,0c-0.1-0.4-0.6-0.9-0.6-1.4c-0.6-3-4.2-11.7-4.5-13.2c0,2.7,0.2,10.7,0.1,14.6c-0.1,0.3-0.8,0.3-1.3,0.1
		c0.2-0.3-0.1-18.4-0.1-18.6c0.6-0.1,1.4,0,1.5,0.6C716.6,1080,718,1084.9,719.9,1089.6z"/>
	<path d="M741.4,1093c-0.1-0.2-0.1-0.1-0.3-0.8c-0.7-1.6-0.7-2.9-1.4-4.5c-2.6,0.2-5.8-0.3-7.6,0c-0.6,0.6-0.6,1.6-1,2.4
		c-0.1,0.2-1,2.9-1.1,2.9c-0.3,0.2-1.1,0-1.2-0.1c1.1-3,2.6-7.2,3.4-10.1c0.1-0.3,1.6-4.2,2.5-6.7c0.2-0.6,0.2-1.8,1.3-1.8
		c1.1,1.7,2.4,6.5,2.8,7.4c0.4,1.8,1.2,2.8,2.1,5.5c0.6,1.8,1.2,3.1,1.5,4.8c0,0.4,0.8,1.2-0.2,1.1
		C741.8,1093.1,741.6,1093.2,741.4,1093z M732.1,1086.5c2.4-0.2,3.1,0.2,4.9,0.1c0.4,0,1.8,0,2.2-0.1c-1.3-3-2.4-6.3-3.5-9.6
		C734.3,1080,733.1,1083.1,732.1,1086.5z"/>
	<path d="M745.1,1092.9c-0.3-2.3,0.1-4.6,0-7.2c0.4-3-1.2-11.1,0.4-10.7c1.1-0.2,0.8,1.2,0.9,3.5c0.1,3.1,0.1,5.9,0,9.8
		c0,0.9-0.2,2.1,0,3.4c1.3,0.1,2.2,0.3,3.3,0.2c1.4-0.1,2.5-0.3,4.3-0.3c0.1,0.2,0.4,1,0,1.4
		C751.2,1092.8,748.1,1093.5,745.1,1092.9z"/>
	<path d="M767.7,1093c-0.1-0.2-0.1-0.1-0.3-0.8c-0.7-1.6-0.7-2.9-1.4-4.5c-2.6,0.2-5.8-0.3-7.6,0c-0.6,0.6-0.6,1.6-1,2.4
		c-0.1,0.2-1,2.9-1.1,2.9c-0.3,0.2-1.1,0-1.2-0.1c1.1-3,2.6-7.2,3.4-10.1c0.1-0.3,1.6-4.2,2.5-6.7c0.2-0.6,0.2-1.8,1.3-1.8
		c1.1,1.7,2.4,6.5,2.8,7.4c0.4,1.8,1.2,2.8,2.1,5.5c0.6,1.8,1.2,3.1,1.5,4.8c0,0.4,0.8,1.2-0.2,1.1
		C768.1,1093.1,767.9,1093.2,767.7,1093z M758.4,1086.5c2.4-0.2,3.1,0.2,4.9,0.1c0.4,0,1.8,0,2.2-0.1c-1.3-3-2.4-6.3-3.5-9.6
		C760.6,1080,759.4,1083.1,758.4,1086.5z"/>
	<path d="M779.4,1075.8c-1.8-1-4-0.5-5,0.7c-0.9,1-2.5,4.7-2.7,6.3c-0.6,3.8,1.5,8.4,3.8,9.4c3.2,1.4,5.9-2.1,6.1-5.4
		c-0.7-0.2-4.8,0.4-4.8,0c0-0.6-0.2-1.1,0-1.1c1.9,0,4.9-0.2,6.2,0c-0.6,4.1-2,7.5-5.6,7.9c-0.6,0-1.3,0-1.8-0.2
		c-0.4-0.2-1.1-0.2-1.8-1c-0.6-0.6-2.1-2.2-2.5-3.4c-0.2-0.5-0.2-1.1-0.4-1.7c-0.4-1.3-0.6-2.7-0.5-4.5c0.2-2.7,2.6-6.7,4.3-8.3
		c5.3-2.1,9.3,3.4,7.9,4.8C781.7,1079.5,780.9,1076.5,779.4,1075.8z"/>
	<path d="M796.3,1093c-0.1-0.2-0.1-0.1-0.3-0.8c-0.7-1.6-0.7-2.9-1.4-4.5c-2.6,0.2-5.8-0.3-7.6,0c-0.6,0.6-0.6,1.6-1,2.4
		c-0.1,0.2-1,2.9-1.1,2.9c-0.3,0.2-1.1,0-1.2-0.1c1.1-3,2.6-7.2,3.4-10.1c0.1-0.3,1.6-4.2,2.5-6.7c0.2-0.6,0.2-1.8,1.3-1.8
		c1.1,1.7,2.4,6.5,2.8,7.4c0.4,1.8,1.2,2.8,2.1,5.5c0.6,1.8,1.2,3.1,1.5,4.8c0,0.4,0.8,1.2-0.2,1.1
		C796.7,1093.1,796.5,1093.2,796.3,1093z M787,1086.5c2.4-0.2,3.1,0.2,4.9,0.1c0.4,0,1.8,0,2.2-0.1c-1.3-3-2.4-6.3-3.5-9.6
		C789.2,1080,788,1083.1,787,1086.5z"/>
</g>
<g class="st0">
	<path d="M732.1,1106.6c0,0.4-0.1,0.4-0.1,0.8s0,0.4,0,0.7c0,0.4,0,0.4,0,0.7c0,0.4,0,0.4,0,0.8v0.7c0,0.4,0,0.4,0,0.8
		s0.1,0.4,0.1,0.7c0,0.4-0.1,0.4-0.1,0.8s0,0.4,0,0.7v0.8c0,0.4,0,0.4,0,0.7v0.7c0,0.4,0,0.4,0,0.8s0,0.4,0,0.7c0,0.4,0,0.4,0,0.8
		s0,0.4,0,0.7c0,0.4,0.1,0.4,0.1,0.7c0,0.4,0,0.4,0,0.8s0,0.4,0,0.7c0,0.2-0.2,0.4-0.3,0.6c-0.1,0.1-0.2,0.2-0.4,0.3
		c0.4,0,0.6,0,0.6,0h-0.7h-0.1c-0.1,0-0.2,0-0.3,0h-0.5c-0.4,0-0.4,0-0.7,0h-0.4c-0.1,0-0.2,0-0.3,0c0,0-0.1,0-0.2,0h-0.7
		c0,0,0.3,0,0.6,0c-0.1-0.1-0.3-0.2-0.4-0.3c-0.1-0.1-0.2-0.3-0.2-0.6c0-0.4-0.1-0.4-0.1-0.8s0-0.4,0-0.8s-0.1-0.4-0.1-0.8
		s0.1-0.4,0.1-0.8s-0.1-0.4-0.1-0.8s0.1-0.4,0.1-0.8s-0.1-0.4-0.1-0.8s0.1-0.4,0.1-0.8s-0.1-0.4-0.1-0.8s0-0.4,0-0.8
		c0-0.5-0.2-0.6-0.5-0.2l-0.4,0.6c-0.2,0.3-0.3,0.2-0.5,0.5s-0.2,0.3-0.4,0.6c-0.2,0.3-0.2,0.3-0.4,0.6c-0.2,0.3-0.3,0.2-0.5,0.5
		s-0.2,0.3-0.4,0.6c-0.2,0.3-0.3,0.2-0.5,0.5s-0.2,0.3-0.4,0.6c-0.2,0.3-0.2,0.3-0.5,0.6c-0.2,0.3-0.2,0.3-0.4,0.6l-0.5,0.6
		c-0.1,0.2-0.4,0.2-0.6,0.2s-0.4-0.1-0.5-0.2c-0.2-0.3-0.2-0.3-0.5-0.6c-0.2-0.3-0.2-0.3-0.5-0.6c-0.2-0.3-0.2-0.3-0.5-0.6
		c-0.2-0.3-0.3-0.3-0.5-0.6c-0.2-0.3-0.2-0.3-0.5-0.6c-0.3-0.3-0.3-0.3-0.5-0.6c-0.2-0.3-0.2-0.3-0.4-0.6c-0.2-0.3-0.3-0.3-0.5-0.6
		c-0.2-0.3-0.2-0.3-0.5-0.6c-0.2-0.3-0.3-0.3-0.5-0.6c-0.3-0.3-0.5-0.3-0.5,0.2c0,0.4,0.1,0.4,0.1,0.8s0,0.4,0,0.8s0,0.4,0,0.8v0.8
		c0,0.4-0.1,0.4-0.1,0.8s0,0.4,0,0.8s0.1,0.4,0.1,0.8s-0.1,0.4-0.1,0.7c0,0.4,0,0.4,0,0.8s0,0.4,0,0.8c0,0.2,0,0.5-0.2,0.6
		c-0.1,0.1-0.3,0.2-0.4,0.2c0.4,0,0.7,0,0.7,0h-0.8c-0.4,0-0.4,0-0.7,0c-0.2,0-0.3,0-0.4,0h-0.3c-0.4,0-0.4,0-0.7,0
		c-0.5,0-0.8,0-0.8,0s0.4,0,0.8,0h0.5c-0.2,0-0.3,0-0.5,0s-0.4-0.1-0.6-0.2c-0.2-0.1-0.3-0.3-0.3-0.6c0-0.4,0-0.4,0-0.7
		c0-0.4,0-0.4,0-0.8v-0.7c0-0.4,0-0.4,0-0.8s0-0.4,0-0.7c0-0.4,0-0.4,0-0.8v-0.7c0-0.4-0.1-0.4-0.1-0.8v-0.7c0-0.4,0-0.4,0-0.7
		c0-0.4,0.1-0.4,0.1-0.8s-0.1-0.4-0.1-0.7v-0.8c0-0.4,0.1-0.4,0.1-0.7c0-0.4,0-0.4,0-0.8s0-0.4,0-0.7v-0.7c0-0.4-0.1-0.4-0.1-0.8
		v-0.7c0-0.4,0.1-0.4,0.1-0.8c0-0.2,0-0.5,0.2-0.6c0.1-0.1,0.4-0.2,0.6-0.2h0.6c0.3,0,0.3,0,0.6,0c0.2,0,0.5,0.1,0.7,0.2
		s0.5,0.3,0.6,0.5c0.2,0.3,0.3,0.3,0.5,0.5l0.4,0.6c0.2,0.3,0.2,0.3,0.5,0.6c0.2,0.3,0.2,0.3,0.4,0.6c0.2,0.3,0.2,0.3,0.5,0.6
		c0.2,0.3,0.2,0.3,0.5,0.6c0.2,0.3,0.2,0.3,0.4,0.6l0.5,0.6c0.2,0.3,0.2,0.3,0.5,0.5c0.2,0.3,0.3,0.2,0.5,0.5s0.2,0.3,0.4,0.6
		c0.2,0.3,0.2,0.3,0.4,0.6c0.2,0.3,0.2,0.3,0.5,0.6c0.1,0.2,0.3,0.2,0.5,0.2s0.4-0.1,0.5-0.2c0.2-0.3,0.2-0.3,0.5-0.6
		c0.2-0.3,0.2-0.3,0.4-0.6c0.2-0.3,0.2-0.3,0.5-0.6c0.2-0.3,0.3-0.2,0.5-0.5s0.2-0.3,0.4-0.6c0.2-0.3,0.3-0.2,0.5-0.5
		s0.2-0.3,0.4-0.6c0.2-0.3,0.2-0.3,0.5-0.6c0.2-0.3,0.2-0.3,0.5-0.6c0.2-0.3,0.2-0.3,0.5-0.6c0.2-0.3,0.3-0.3,0.5-0.5l0.5-0.6
		c0.2-0.3,0.2-0.3,0.4-0.6c0.1-0.2,0.4-0.4,0.6-0.5c0.3-0.1,0.6-0.1,0.8-0.1c0.3,0,0.3,0,0.6,0s0.3,0.1,0.6,0.1c0.2,0,0.5,0,0.6,0.2
		c0.2,0.1,0.3,0.4,0.3,0.6C732.1,1106.2,732.1,1106.2,732.1,1106.6z M730.8,1121.8c-0.1,0-0.2,0-0.3,0c-0.4,0-0.4,0-0.7,0
		c-0.2,0-0.3,0-0.4,0h0.4c0.4,0,0.4,0,0.7,0H730.8z"/>
	<path d="M754.3,1121c0.1,0.2,0,0.4,0,0.6c-0.1,0.1-0.2,0.3-0.5,0.3h-0.7c-0.3,0-0.3,0-0.6,0s-0.3,0-0.7,0s-0.3-0.1-0.6-0.1
		c-0.2,0-0.5-0.1-0.7-0.2s-0.5-0.3-0.6-0.5c-0.1-0.3-0.1-0.3-0.2-0.6c-0.1-0.3-0.2-0.3-0.3-0.6c-0.1-0.3,0-0.3-0.2-0.6
		c-0.1-0.2-0.3-0.4-0.6-0.5c-0.2-0.1-0.5-0.2-0.7-0.2c-0.3,0-0.3-0.1-0.7-0.1s-0.3,0-0.7,0c-0.3,0-0.3,0-0.7,0s-0.3,0-0.7,0h-0.7
		c-0.3,0-0.3,0-0.7,0s-0.3,0-0.7,0h-0.7c-0.3,0-0.3,0-0.7,0s-0.3,0.1-0.7,0.1h-0.7c-0.2,0-0.5,0-0.7,0.1s-0.4,0.3-0.5,0.5
		c-0.1,0.3-0.1,0.3-0.3,0.6c-0.1,0.3-0.1,0.3-0.2,0.6c-0.1,0.3-0.2,0.3-0.3,0.6c-0.1,0.2-0.3,0.4-0.5,0.6c-0.2,0.1-0.5,0.2-0.7,0.2
		c-0.3,0-0.3,0-0.6,0s-0.3,0-0.7,0s-0.3,0-0.7,0s-0.3,0-0.6,0c-0.2,0-0.5,0-0.5-0.2c-0.1-0.1,0-0.4,0-0.6c0.1-0.3,0.2-0.3,0.3-0.6
		l0.3-0.6c0.1-0.3,0.1-0.3,0.3-0.6c0.1-0.3,0.1-0.3,0.2-0.6c0.1-0.3,0.2-0.3,0.4-0.6l0.3-0.6c0.1-0.3,0.1-0.3,0.2-0.6
		c0.1-0.3,0.2-0.3,0.3-0.6c0.1-0.3,0.2-0.3,0.4-0.6c0.1-0.3,0.1-0.3,0.3-0.6c0.1-0.3,0.2-0.3,0.3-0.6c0.1-0.3,0.1-0.3,0.3-0.6
		c0.1-0.3,0.1-0.3,0.2-0.6c0.2-0.3,0.2-0.3,0.3-0.6c0.2-0.3,0.2-0.3,0.3-0.6c0.1-0.3,0.1-0.3,0.2-0.6c0.2-0.3,0.1-0.3,0.3-0.6
		c0.1-0.3,0.2-0.3,0.4-0.6l0.3-0.6c0.1-0.3,0.1-0.3,0.3-0.6c0.1-0.3,0.1-0.3,0.2-0.6c0.1-0.3,0.2-0.2,0.4-0.6
		c0.1-0.3,0.1-0.3,0.2-0.6l0.3-0.6c0.1-0.3,0.2-0.3,0.3-0.6c0.1-0.2,0.3-0.4,0.5-0.6c0.1-0.1,0.3-0.1,0.4-0.2c0.2-0.1,0.5,0,0.5,0
		c0.2,0,0.3,0,0.6,0c0.4,0,0.4,0,0.7,0h0.7c0.2,0,0.3,0,0.5,0h0.3h0.2c0.1,0,0.3,0.1,0.4,0.2c0.2,0.1,0.4,0.3,0.5,0.5l0.3,0.6
		c0.2,0.3,0.2,0.3,0.4,0.6c0.2,0.3,0.2,0.3,0.4,0.6c0.1,0.3,0.1,0.3,0.3,0.6c0.1,0.3,0.1,0.3,0.3,0.6c0.1,0.3,0.2,0.3,0.3,0.6
		c0.1,0.3,0.1,0.3,0.3,0.7c0.2,0.3,0.2,0.3,0.4,0.6l0.3,0.6c0.2,0.3,0.1,0.3,0.3,0.6c0.1,0.3,0.1,0.3,0.2,0.6
		c0.1,0.3,0.1,0.3,0.3,0.6l0.3,0.6c0.2,0.3,0.1,0.3,0.3,0.6c0.1,0.3,0.2,0.3,0.3,0.6c0.1,0.3,0.2,0.3,0.3,0.6
		c0.1,0.3,0.2,0.3,0.3,0.6c0.1,0.3,0.2,0.3,0.3,0.6c0.2,0.3,0.2,0.3,0.3,0.6c0.2,0.3,0.1,0.3,0.3,0.6c0.1,0.3,0.2,0.3,0.3,0.6
		c0.1,0.3,0.1,0.3,0.3,0.6c0.1,0.3,0.1,0.3,0.3,0.6C754.1,1120.7,754.1,1120.7,754.3,1121z M746.6,1113.9c-0.1-0.3-0.2-0.3-0.4-0.7
		c-0.1-0.3-0.1-0.3-0.3-0.7c-0.2-0.3-0.1-0.4-0.3-0.7s-0.2-0.3-0.4-0.6c-0.1-0.3-0.2-0.3-0.3-0.7c-0.1-0.3,0-0.4-0.2-0.7
		c-0.2-0.4-0.6-0.4-0.8,0c-0.2,0.3-0.1,0.3-0.3,0.7c-0.1,0.3-0.1,0.4-0.3,0.7c-0.1,0.3-0.2,0.3-0.4,0.6c-0.2,0.3-0.1,0.4-0.3,0.7
		c-0.1,0.3-0.2,0.3-0.3,0.7s-0.2,0.3-0.3,0.6c-0.1,0.2,0,0.4,0,0.5c0.1,0.1,0.2,0.3,0.4,0.3h0.7c0.4,0,0.4-0.1,0.7-0.1
		c0.4,0,0.4,0,0.7,0s0.4,0.1,0.7,0.1c0.4,0,0.4,0,0.7,0c0.2,0,0.4-0.1,0.5-0.2C746.7,1114.4,746.7,1114.1,746.6,1113.9z"/>
	<path d="M773.5,1121.2c0.3,0.3,0.2,0.6-0.2,0.6s-0.4-0.1-0.7-0.1c-0.4,0-0.4,0-0.7,0h-0.7c-0.4,0-0.4,0-0.7,0c-0.4,0-0.4,0-0.7,0
		c-0.2,0-0.5-0.1-0.8-0.2c-0.2-0.1-0.5-0.2-0.6-0.4c-0.3-0.3-0.3-0.3-0.5-0.6c-0.3-0.3-0.3-0.3-0.5-0.6l-0.5-0.6
		c-0.3-0.3-0.2-0.3-0.5-0.6c-0.3-0.3-0.3-0.3-0.6-0.5c-0.3-0.3-0.2-0.3-0.5-0.6c-0.3-0.3-0.3-0.3-0.6-0.6c-0.3-0.3-0.2-0.3-0.5-0.6
		c-0.3-0.3-0.3-0.3-0.6-0.5l-0.5-0.6c-0.1-0.2-0.4-0.3-0.6-0.3c-0.2,0-0.4,0.1-0.6,0.2c-0.2,0.2-0.2,0.2-0.4,0.4
		c-0.2,0.2-0.2,0.2-0.4,0.4c-0.2,0.1-0.3,0.4-0.4,0.6c-0.1,0.2-0.2,0.5-0.2,0.7c0,0.4,0,0.4,0,0.8v0.8c0,0.4,0,0.4,0,0.8
		s-0.1,0.4-0.1,0.8c0,0.2-0.1,0.4-0.2,0.6c-0.2,0.2-0.4,0.2-0.6,0.2c-0.4,0-0.4,0-0.7,0c-0.4,0-0.4,0-0.7,0c-0.4,0-0.4,0-0.7,0
		c-0.2,0-0.5-0.1-0.6-0.3c-0.1-0.1-0.3-0.4-0.3-0.6v-0.7c0-0.4,0-0.4,0-0.8v-0.7c0-0.4,0-0.4,0-0.8s0-0.4,0-0.7c0-0.4,0-0.4,0-0.8
		s0-0.4,0-0.7v-0.8c0-0.4,0-0.4,0-0.7c0-0.4-0.1-0.4-0.1-0.8s0-0.4,0-0.7c0-0.4,0-0.4,0-0.8s0-0.4,0-0.7c0-0.4,0-0.4,0-0.8
		s0-0.4,0-0.7v-0.8c0-0.4-0.1-0.4-0.1-0.7c0-0.4,0.1-0.4,0.1-0.8s0-0.4,0-0.7s0-0.4,0-0.7c0-0.2,0.1-0.4,0.2-0.6
		c0.1-0.1,0.3-0.2,0.6-0.2c0.4,0,0.4,0,0.7,0c0.4,0,0.4,0,0.7,0c0.4,0,0.4,0,0.7,0c0.2,0,0.5,0.1,0.6,0.2c0.1,0.2,0.3,0.4,0.3,0.6
		c0,0.3,0,0.3,0,0.7c0,0.4,0,0.4,0,0.7c0,0.3-0.1,0.3-0.1,0.7c0,0.4,0,0.4,0,0.7v0.7c0,0.4,0,0.4,0,0.7c0,0.4,0,0.4,0,0.7
		c0,0.5,0.2,0.6,0.6,0.3l0.6-0.5c0.3-0.2,0.3-0.2,0.6-0.5c0.3-0.2,0.2-0.3,0.5-0.5l0.5-0.5c0.3-0.2,0.3-0.2,0.6-0.5
		c0.3-0.2,0.2-0.3,0.5-0.6c0.3-0.2,0.3-0.2,0.6-0.5c0.3-0.2,0.3-0.2,0.6-0.5s0.3-0.2,0.6-0.5s0.3-0.2,0.6-0.5s0.3-0.3,0.6-0.5
		c0.2-0.2,0.4-0.4,0.6-0.5c0.3-0.1,0.6-0.1,0.8-0.1h0.7c0.3,0,0.3,0,0.7,0s0.3,0,0.7,0c0.3,0,0.3,0,0.7,0h0.7c0.3,0,0.3,0,0.7,0
		c0.5,0,0.6,0.2,0.2,0.6c-0.3,0.3-0.2,0.3-0.5,0.6l-0.6,0.5c-0.3,0.2-0.3,0.2-0.6,0.5c-0.3,0.2-0.3,0.2-0.6,0.5s-0.3,0.2-0.6,0.5
		s-0.2,0.3-0.5,0.6s-0.2,0.3-0.5,0.6s-0.3,0.2-0.6,0.5s-0.3,0.3-0.6,0.5c-0.3,0.3-0.3,0.2-0.6,0.5s-0.3,0.2-0.6,0.5
		s-0.2,0.3-0.5,0.6c-0.2,0.2-0.3,0.3-0.3,0.6c0,0.2,0.1,0.4,0.3,0.6c0.3,0.3,0.2,0.3,0.5,0.6c0.3,0.3,0.3,0.3,0.5,0.6
		c0.3,0.3,0.3,0.2,0.6,0.5s0.3,0.3,0.5,0.6c0.3,0.3,0.2,0.3,0.5,0.6c0.3,0.3,0.3,0.3,0.5,0.6c0.3,0.3,0.3,0.3,0.5,0.6l0.5,0.5
		c0.3,0.3,0.3,0.3,0.5,0.6l0.5,0.5c0.2,0.3,0.3,0.2,0.6,0.5s0.2,0.3,0.5,0.6c0.2,0.3,0.3,0.2,0.6,0.5s0.3,0.3,0.5,0.6
		C773.3,1120.9,773.3,1121,773.5,1121.2z"/>
	<path d="M789.9,1106.6c0,0.4,0,0.4,0,0.7c0,0.4,0,0.4,0,0.7c0,0.2,0,0.5-0.2,0.6c-0.1,0.2-0.4,0.2-0.6,0.2c-0.4,0-0.4,0.1-0.7,0.1
		c-0.4,0-0.4,0-0.7,0s-0.4,0-0.7,0c-0.4,0-0.4,0-0.7,0s-0.4,0-0.7,0c-0.4,0-0.4,0.1-0.7,0.1c-0.4,0-0.4,0-0.7,0s-0.4,0-0.7,0
		c-0.4,0-0.4,0.1-0.7,0.1c-0.4,0-0.4-0.1-0.7-0.1h-0.7c-0.4,0-0.4,0-0.7,0c-0.2,0-0.5,0.1-0.6,0.3c-0.2,0.2-0.2,0.4-0.2,0.6v0.9
		c0,0.2,0,0.5,0.2,0.6s0.4,0.2,0.6,0.2c0.4,0,0.4,0,0.8,0s0.4,0,0.8,0c0.4,0,0.4,0,0.7,0c0.4,0,0.4,0,0.8,0s0.4,0,0.7,0
		c0.4,0,0.4,0.1,0.8,0.1c0.4,0,0.4-0.1,0.8-0.1c0.2,0,0.4,0.1,0.6,0.3c0.2,0.1,0.2,0.4,0.2,0.6v0.7c0,0.4,0,0.4,0,0.7v0.7
		c0,0.2-0.1,0.4-0.3,0.6c-0.1,0.1-0.4,0.3-0.6,0.3c-0.4,0-0.4-0.1-0.8-0.1c-0.4,0-0.4,0.1-0.8,0.1c-0.4,0-0.4,0-0.7,0s-0.4,0-0.8,0
		c-0.4,0-0.4,0-0.8,0c-0.4,0-0.4,0-0.7,0s-0.4,0-0.8,0c-0.2,0-0.4,0.1-0.6,0.3c-0.1,0.1-0.3,0.4-0.3,0.6c0,0.4,0,0.4,0,0.9
		c0,0.2,0,0.5,0.2,0.6c0.1,0.2,0.4,0.2,0.6,0.2h0.7c0.4,0,0.4,0,0.7,0s0.4-0.1,0.7-0.1h0.7c0.4,0,0.4,0.1,0.7,0.1s0.4-0.1,0.7-0.1
		c0.4,0,0.4,0,0.7,0c0.4,0,0.4,0,0.7,0c0.4,0,0.4-0.1,0.7-0.1s0.4,0,0.7,0c0.4,0,0.4,0,0.7,0h0.7c0.2,0,0.4,0.1,0.6,0.2
		c0.1,0.1,0.3,0.3,0.3,0.6v0.7c0,0.4,0,0.4,0,0.7v0.7c0,0.2-0.1,0.5-0.2,0.6c-0.1,0.1-0.4,0.2-0.6,0.2c-0.4,0-0.4,0-0.7,0
		c-0.4,0-0.4,0-0.7,0s-0.4,0.1-0.7,0.1c-0.4,0-0.4,0-0.7,0h-0.7c-0.4,0-0.4,0-0.7,0h-0.7c-0.4,0-0.4,0-0.7,0h-0.7
		c-0.4,0-0.4,0-0.7,0c-0.4,0-0.4,0-0.7,0c-0.4,0-0.4,0.1-0.7,0.1c-0.4,0-0.4-0.1-0.7-0.1c-0.4,0-0.4,0.1-0.7,0.1c-0.4,0-0.4,0-0.7,0
		s-0.4,0-0.7,0h-0.7c-0.2,0-0.4-0.1-0.6-0.2c-0.1-0.2-0.3-0.4-0.3-0.6c0-0.4,0-0.4,0-0.7c0-0.4,0-0.4,0-0.8s0-0.4,0-0.7
		c0-0.4,0-0.4,0-0.8v-0.7c0-0.4,0-0.4,0-0.8s0.1-0.4,0.1-0.7s-0.1-0.4-0.1-0.8v-0.7c0-0.4,0-0.4,0-0.7c0-0.4,0.1-0.4,0.1-0.8
		s-0.1-0.4-0.1-0.7c0-0.4,0.1-0.4,0.1-0.8s-0.1-0.4-0.1-0.7v-0.8c0-0.4,0.1-0.4,0.1-0.7c0-0.4,0-0.4,0-0.7c0-0.4,0-0.4,0-0.8
		s0-0.4,0-0.7s0-0.4,0-0.8c0-0.2,0.1-0.4,0.3-0.6c0.2-0.1,0.3-0.3,0.6-0.3c0.4,0,0.4,0,0.7,0c0.4,0,0.4,0,0.7,0
		c0.4,0,0.4-0.1,0.7-0.1c0.4,0,0.4,0,0.7,0s0.4,0,0.7,0h0.7c0.4,0,0.4,0,0.7,0s0.4,0,0.7,0c0.4,0,0.4,0,0.7,0c0.4,0,0.4,0,0.7,0h0.7
		c0.4,0,0.4,0,0.7,0c0.4,0,0.4,0,0.7,0c0.4,0,0.4,0,0.7,0h0.7c0.4,0,0.4,0,0.7,0c0.4,0,0.4,0,0.7,0c0.2,0,0.5,0.1,0.6,0.3
		c0.2,0.1,0.2,0.4,0.2,0.6C789.9,1106.2,789.9,1106.2,789.9,1106.6z"/>
	<path d="M809.5,1118.6c0.1,0.2,0.2,0.5,0.2,0.7s-0.1,0.5-0.2,0.7c-0.1,0.2-0.1,0.5-0.3,0.6c-0.1,0.2-0.3,0.4-0.5,0.5
		s-0.4,0.3-0.6,0.4c-0.2,0.1-0.5,0.1-0.7,0.2c-0.2,0-0.5,0.1-0.7,0.1s-0.5,0-0.8-0.1c-0.2,0-0.5-0.1-0.7-0.1
		c-0.2-0.1-0.5-0.2-0.7-0.3c-0.2-0.1-0.5-0.2-0.7-0.3c-0.2-0.1-0.4-0.3-0.6-0.4c-0.2-0.1-0.4-0.3-0.6-0.4l-0.6-0.4
		c-0.2-0.1-0.5-0.3-0.6-0.4c-0.2-0.1-0.4-0.3-0.6-0.5c-0.2-0.1-0.5-0.2-0.7-0.3c-0.2-0.1-0.4-0.3-0.6-0.4c-0.3-0.1-0.6-0.2-0.8-0.2
		c-0.4,0-0.4,0-0.9,0H797c-0.2,0-0.4,0.1-0.6,0.2c-0.2,0.1-0.2,0.4-0.2,0.6c0,0.4,0,0.4,0,0.7c0,0.3,0,0.3,0,0.7v0.7
		c0,0.2-0.1,0.5-0.2,0.6c-0.1,0.1-0.4,0.2-0.6,0.2c-0.4,0-0.4,0.1-0.7,0.1H794c-0.4,0-0.4-0.1-0.7-0.1c-0.2,0-0.5,0-0.6-0.2
		s-0.2-0.4-0.2-0.6v-0.7c0-0.4,0-0.4,0-0.8s-0.1-0.4-0.1-0.7v-0.8c0-0.4,0-0.4,0-0.7c0-0.4,0.1-0.4,0.1-0.8s0-0.4,0-0.7
		c0-0.4,0-0.4,0-0.8s-0.1-0.4-0.1-0.7c0-0.4,0.1-0.4,0.1-0.8s0-0.4,0-0.7c0-0.4,0-0.4,0-0.8s0.1-0.4,0.1-0.7c0-0.4,0-0.4,0-0.8v-0.7
		c0-0.4,0-0.4,0-0.8s0.1-0.4,0.1-0.7c0-0.4,0-0.4,0-0.8v-0.7c0-0.4-0.1-0.4-0.1-0.7c0-0.2,0.1-0.5,0.3-0.6c0.1-0.2,0.4-0.2,0.6-0.2
		h0.7c0.4,0,0.4,0,0.7,0h0.7c0.4,0,0.4,0,0.7,0c0.4,0,0.4-0.1,0.7-0.1h0.7c0.4,0,0.4,0,0.7,0c0.4,0,0.4,0,0.7,0h0.7
		c0.2,0,0.5,0,0.7,0s0.5,0,0.7,0s0.5,0,0.7,0c0.3,0,0.5,0.1,0.7,0.2c0.2,0,0.5,0.1,0.7,0.2c0.2,0,0.5,0.1,0.7,0.2s0.5,0.1,0.7,0.2
		s0.5,0.2,0.6,0.3c0.2,0.1,0.4,0.3,0.6,0.4c0.2,0.1,0.4,0.3,0.6,0.4c0.2,0.2,0.4,0.3,0.6,0.5c0.2,0.2,0.3,0.4,0.5,0.6
		s0.3,0.4,0.4,0.6c0.1,0.2,0.2,0.4,0.3,0.6s0.2,0.5,0.2,0.7s0.1,0.5,0.1,0.7s0,0.5,0,0.7c0,0.3,0.1,0.5,0.1,0.8l-0.1,0.8
		c-0.1,0.2-0.2,0.5-0.3,0.7s-0.2,0.5-0.3,0.7s-0.2,0.5-0.4,0.6c-0.2,0.2-0.3,0.4-0.5,0.6s-0.4,0.3-0.6,0.5c-0.2,0.2-0.4,0.4-0.6,0.5
		c-0.2,0.1-0.4,0.2-0.4,0.4c0,0.2,0,0.4,0.2,0.5s0.5,0.2,0.8,0.3c0.3,0.1,0.6,0.1,0.8,0.1c0.3,0,0.6,0,0.8-0.1s0.5,0,0.8,0
		s0.5,0,0.7,0.1C809.3,1118.2,809.4,1118.4,809.5,1118.6z M804.2,1111.5c0-0.3-0.1-0.5-0.2-0.7c-0.1-0.2-0.2-0.5-0.4-0.7
		s-0.4-0.3-0.6-0.4c-0.2-0.1-0.5-0.2-0.7-0.3c-0.2-0.1-0.5-0.1-0.8-0.2c-0.2,0-0.5-0.1-0.8-0.2c-0.3,0-0.5,0-0.8,0h-0.8
		c-0.4,0-0.4,0.1-0.8,0.1h-0.9c-0.4,0-0.4,0-0.8,0c-0.2,0-0.4,0.1-0.6,0.3c-0.1,0.1-0.2,0.3-0.2,0.6v0.7c0,0.4,0,0.4,0,0.7
		c0,0.4,0.1,0.4,0.1,0.7v0.7c0,0.4,0,0.4,0,0.7c0,0.2,0,0.5,0.2,0.6c0.1,0.1,0.4,0.2,0.6,0.2c0.4,0,0.4,0,0.8,0c0.4,0,0.4,0,0.9,0
		c0.4,0,0.4-0.1,0.8-0.1c0.3,0,0.5,0,0.8,0s0.5,0,0.8-0.1c0.3,0,0.6,0,0.8,0c0.3,0,0.5-0.1,0.8-0.2s0.5-0.2,0.7-0.3
		c0.2-0.1,0.4-0.4,0.6-0.5c0.2-0.2,0.4-0.4,0.5-0.6C804.2,1112.1,804.2,1111.8,804.2,1111.5z"/>
</g>
<g class="st0">
	<path d="M722.8,1135.3c-1.8-3.1-7.3-1.7-7.8-0.8c-0.7,0.8-1.5,2.9-0.8,3.8c1,1.3,3.5,1.2,5.2,1.7c0.4,0.1,1.2,0.4,1.2,0.4
		c2.3,1.2,4.8,2.7,3.4,6.8c-1,2-1.9,3-3.6,3.5c-1.1,0.3-4,0.3-5.3-0.1c-1.8-0.6-3.2-2.5-3-5c0.2-0.1,0.6-0.2,0.9-0.2
		c0.4,1,0.2,1.9,0.9,2.9c1.2,1.6,5.2,1.8,6.9,0.7c1.2-0.8,2.5-2.6,2.3-4.7c-0.1-1.2-2.1-2.4-3.6-3c-2-0.7-4.6-0.4-5.8-1.7
		c-1.5-1.5-1.4-4.3,0.4-6c1-0.9,1.7-1.4,3.3-1.5c0.4,0,0.9-0.1,1.1-0.1c2.1,0.1,4,0.5,5.1,2.2c0.7,0.9,1.1,1.8,1.1,3
		c-0.4,0.2-0.7,0.2-0.9,0.3C723.3,1137.1,723.3,1136.2,722.8,1135.3z"/>
	<path d="M728.7,1150.7c-1.6,0.2-1.2-1.1-1.2-2.1c-0.1-2.1,0-3.7-0.1-5.3c0-1.2,0-2.9,0.1-4.2c0-2.4-0.2-4.4,0-6.9
		c3.2-0.4,7.1-0.2,9.6,1.5c3,2,1.4,7.5-0.9,9.1c-1.6,1.1-5.5,0.9-7.5,0.6C728.5,1146.6,729.1,1147.9,728.7,1150.7z M737.2,1139.3
		c0.6-2.1,0.2-4.2-1.5-4.9c-2-0.9-4.7-1-6.9-0.9c-0.3,0.4-0.1,0.5-0.2,1c-0.2,1.8,0.2,5.1,0,7.7c2.4,0.1,4.5,0.6,6.5,0
		C735.7,1141.9,736.9,1140.2,737.2,1139.3z"/>
	<path d="M752.5,1150.6c-0.1-0.2-0.1-0.1-0.3-0.8c-0.7-1.6-0.7-2.9-1.4-4.5c-2.6,0.2-5.8-0.3-7.6,0c-0.6,0.6-0.6,1.6-1,2.4
		c-0.1,0.2-1,2.9-1.1,2.9c-0.3,0.2-1.1,0-1.2-0.1c1.1-3,2.6-7.2,3.4-10.1c0.1-0.3,1.6-4.2,2.5-6.7c0.2-0.6,0.2-1.8,1.3-1.8
		c1.1,1.7,2.4,6.5,2.8,7.4c0.4,1.8,1.2,2.8,2.1,5.5c0.6,1.8,1.2,3.1,1.5,4.8c0,0.4,0.8,1.2-0.2,1.1
		C752.9,1150.7,752.7,1150.8,752.5,1150.6z M743.2,1144.1c2.4-0.2,3.1,0.2,4.9,0.1c0.4,0,1.8,0,2.2-0.1c-1.3-3-2.4-6.3-3.5-9.6
		C745.4,1137.6,744.2,1140.7,743.2,1144.1z"/>
	<path d="M755,1142.7c0-0.6,0.2-1,0.2-1.8c0-1.1,0.5-2.9,0.8-3.7c0.5-1.6,2-5,4.2-5.2c3.9-0.5,6.9,1.8,7.4,5.2
		c0.1,1.5,0,1.3-0.5,1.4c-0.6,0-0.6-1.6-1-2.6s-1.1-1.7-1.7-2.2c-1.3-1-3.4-1.5-4.8-0.3c-2.3,2-3.7,7.9-3.1,11.7
		c0.3,1.7,1.2,3.4,2.9,4.2c2.4,1.2,5,0.7,6.4-1.2c0.4-0.4,1.2-2.9,1.6-2.7c0.2,0.1,1.8-0.2-0.2,2.8c-0.8,1.2-3.1,3.3-5.6,2.8
		c-0.8-0.1-2-0.6-3.1-1C755.9,1148.7,754.7,1145.9,755,1142.7z"/>
	<path d="M778.1,1150.9c-2.5,0-4.9,0-7.2-0.2c-0.1-2.1-0.3-4.3-0.2-6.5c0.1-3.7,0.3-7.1,0.4-11.9c2.9-0.3,8.1,0.1,9.5,0.1
		c0,0,0.1,0.8,0,1.1c-4.3,0.3-7.5-0.1-8.2,0c-0.4,2.1,0.2,5.1-0.2,7.3c0.7,0.3,1.6,0,2.6,0c0.5,0,1.2,0.1,1.8,0.1
		c1.1,0,2.3-0.3,2.1,0.4c0.1,1.1-0.7,0.6-1.5,0.8c-2.1-0.2-2.9,0-5,0.1c-0.1,2.2-0.3,5.4,0,7.7c2.4,0.9,5-0.4,8.5,0.2
		c0,0.2,0,0.6,0,0.7C779.9,1151.1,779,1150.9,778.1,1150.9z"/>
</g>
<g>
	<path d="M140.2,1166.9H50c-5,0-9.1-4.1-9.1-9.1v-113.9c0-5,4.1-9.1,9.1-9.1h90.3c5,0,9.1,4.1,9.1,9.1v113.9
		C149.3,1162.8,145.2,1166.9,140.2,1166.9z"/>
	<path class="st4" d="M132.3,1136.4H57.5c-5.6,0-10.2-4.6-10.2-10.2v-74.9c0-5.6,4.6-10.2,10.2-10.2h74.9c5.6,0,10.2,4.6,10.2,10.2
		v74.9C142.5,1131.8,138,1136.4,132.3,1136.4z"/>
	<g>
		<path d="M133.2,1047.6h-3.3h-3.3h-3.3H120h-3.3h-3.3v3.3v3.3v3.3v3.3v3.3v3.3v3.3h3.3h3.3h3.3h3.3h3.3h3.3h3.3v-3.3v-3.3v-3.3
			v-3.3v-3.3v-3.3v-3.3H133.2z M133.2,1054.2v3.3v3.3v3.3v3.3h-3.3h-3.3h-3.3H120h-3.3v-3.3v-3.3v-3.3v-3.3v-3.3h3.3h3.3h3.3h3.3
			h3.3V1054.2z"/>
		<polygon points="86.8,1054.2 90.1,1054.2 90.1,1050.9 90.1,1047.6 86.8,1047.6 86.8,1050.9 83.5,1050.9 80.2,1050.9 80.2,1054.2 
			80.2,1057.5 83.5,1057.5 83.5,1054.2 		"/>
		<polygon points="123.3,1054.2 120,1054.2 120,1057.5 120,1060.9 120,1064.2 123.3,1064.2 126.6,1064.2 129.9,1064.2 129.9,1060.9 
			129.9,1057.5 129.9,1054.2 126.6,1054.2 		"/>
		<polygon points="66.9,1064.2 70.3,1064.2 70.3,1060.9 70.3,1057.5 70.3,1054.2 66.9,1054.2 63.6,1054.2 60.3,1054.2 60.3,1057.5 
			60.3,1060.9 60.3,1064.2 63.6,1064.2 		"/>
		<path d="M60.3,1070.8h3.3h3.3h3.3h3.3h3.3v-3.3v-3.3v-3.3v-3.3v-3.3v-3.3v-3.3h-3.3h-3.3h-3.3h-3.3h-3.3H57h-3.3v3.3v3.3v3.3v3.3
			v3.3v3.3v3.3H57H60.3z M57,1064.2v-3.3v-3.3v-3.3v-3.3h3.3h3.3h3.3h3.3h3.3v3.3v3.3v3.3v3.3v3.3h-3.3h-3.3h-3.3h-3.3H57V1064.2z"
			/>
		<polygon points="96.8,1067.5 96.8,1064.2 100.1,1064.2 100.1,1067.5 100.1,1070.8 103.4,1070.8 103.4,1067.5 106.7,1067.5 
			106.7,1064.2 110,1064.2 110,1060.9 106.7,1060.9 103.4,1060.9 103.4,1057.5 103.4,1054.2 106.7,1054.2 106.7,1050.9 110,1050.9 
			110,1047.6 106.7,1047.6 103.4,1047.6 100.1,1047.6 96.8,1047.6 96.8,1050.9 100.1,1050.9 100.1,1054.2 100.1,1057.5 
			100.1,1060.9 96.8,1060.9 96.8,1057.5 93.5,1057.5 93.5,1060.9 93.5,1064.2 93.5,1067.5 93.5,1070.8 96.8,1070.8 		"/>
		<rect x="106.7" y="1067.5" width="3.3" height="3.3"/>
		<rect x="103.4" y="1070.8" width="3.3" height="3.3"/>
		<polygon points="57,1074.1 53.7,1074.1 53.7,1077.4 53.7,1080.7 53.7,1084.1 57,1084.1 57,1080.7 57,1077.4 60.3,1077.4 
			60.3,1074.1 		"/>
		<rect x="63.6" y="1074.1" width="3.3" height="3.3"/>
		<polygon points="129.9,1074.1 126.6,1074.1 126.6,1077.4 129.9,1077.4 133.2,1077.4 133.2,1074.1 		"/>
		<rect x="60.3" y="1077.4" width="3.3" height="3.3"/>
		<rect x="83.5" y="1077.4" width="3.3" height="3.3"/>
		<polygon points="106.7,1080.7 110,1080.7 110,1077.4 110,1074.1 106.7,1074.1 106.7,1077.4 		"/>
		<polygon points="133.2,1080.7 129.9,1080.7 129.9,1084.1 133.2,1084.1 136.5,1084.1 136.5,1080.7 136.5,1077.4 133.2,1077.4 		"/>
		<polygon points="113.3,1084.1 116.7,1084.1 116.7,1080.7 116.7,1077.4 120,1077.4 123.3,1077.4 123.3,1074.1 120,1074.1 
			116.7,1074.1 113.3,1074.1 113.3,1077.4 113.3,1080.7 110,1080.7 110,1084.1 		"/>
		<rect x="120" y="1080.7" width="3.3" height="3.3"/>
		<rect x="60.3" y="1084.1" width="3.3" height="3.3"/>
		<polygon points="110,1084.1 106.7,1084.1 106.7,1087.4 106.7,1090.7 110,1090.7 110,1087.4 		"/>
		<rect x="116.7" y="1084.1" width="3.3" height="3.3"/>
		<polygon points="57,1090.7 57,1094 60.3,1094 63.6,1094 63.6,1097.3 63.6,1100.6 66.9,1100.6 66.9,1097.3 66.9,1094 70.3,1094 
			70.3,1097.3 70.3,1100.6 73.6,1100.6 73.6,1097.3 76.9,1097.3 76.9,1094 73.6,1094 73.6,1090.7 76.9,1090.7 76.9,1087.4 
			73.6,1087.4 70.3,1087.4 70.3,1090.7 66.9,1090.7 63.6,1090.7 60.3,1090.7 60.3,1087.4 57,1087.4 		"/>
		<polygon points="113.3,1090.7 110,1090.7 110,1094 113.3,1094 116.7,1094 120,1094 120,1090.7 116.7,1090.7 116.7,1087.4 
			113.3,1087.4 		"/>
		<polygon points="129.9,1087.4 129.9,1090.7 133.2,1090.7 133.2,1094 133.2,1097.3 136.5,1097.3 136.5,1094 136.5,1090.7 
			136.5,1087.4 133.2,1087.4 		"/>
		<rect x="80.2" y="1090.7" width="3.3" height="3.3"/>
		<rect x="100.1" y="1090.7" width="3.3" height="3.3"/>
		<rect x="53.7" y="1094" width="3.3" height="3.3"/>
		<rect x="120" y="1094" width="3.3" height="3.3"/>
		<polygon points="126.6,1097.3 129.9,1097.3 129.9,1094 129.9,1090.7 126.6,1090.7 126.6,1087.4 123.3,1087.4 123.3,1090.7 
			123.3,1094 126.6,1094 		"/>
		<polygon points="60.3,1097.3 57,1097.3 57,1100.6 53.7,1100.6 53.7,1103.9 57,1103.9 60.3,1103.9 63.6,1103.9 63.6,1100.6 
			60.3,1100.6 		"/>
		<polygon points="100.1,1097.3 100.1,1094 96.8,1094 96.8,1097.3 96.8,1100.6 100.1,1100.6 103.4,1100.6 103.4,1097.3 		"/>
		<path d="M126.6,1097.3h-3.3v3.3H120v-3.3h-3.3h-3.3H110h-3.3v3.3h-3.3v3.3h-3.3v3.3v3.3v3.3h-3.3v-3.3v-3.3v-3.3v-3.3h-3.3v3.3
			v3.3h-3.3v3.3h3.3v3.3v3.3h3.3v3.3h3.3v-3.3h3.3v-3.3h3.3v3.3h3.3h3.3h3.3v3.3h3.3v3.3h3.3v3.3h3.3v-3.3h3.3v-3.3v-3.3h-3.3v3.3
			h-3.3v-3.3v-3.3h3.3h3.3v3.3h3.3v-3.3v-3.3h3.3v-3.3v-3.3h-3.3v3.3h-3.3v3.3h-3.3h-3.3v-3.3h3.3h3.3v-3.3v-3.3h-3.3V1097.3z
			 M120,1110.6v3.3h-3.3h-3.3H110v-3.3v-3.3v-3.3h3.3h3.3h3.3v3.3V1110.6z"/>
		<rect x="129.9" y="1097.3" width="3.3" height="3.3"/>
		<rect x="66.9" y="1100.6" width="3.3" height="3.3"/>
		<rect x="73.6" y="1100.6" width="3.3" height="3.3"/>
		<path d="M70.3,1107.3h-3.3h-3.3h-3.3H57h-3.3v3.3v3.3v3.3v3.3v3.3v3.3v3.3H57h3.3h3.3h3.3h3.3h3.3h3.3v-3.3v-3.3v-3.3v-3.3v-3.3
			v-3.3v-3.3h-3.3H70.3z M73.6,1113.9v3.3v3.3v3.3v3.3h-3.3h-3.3h-3.3h-3.3H57v-3.3v-3.3v-3.3v-3.3v-3.3h3.3h3.3h3.3h3.3h3.3V1113.9
			z"/>
		<rect x="113.3" y="1107.3" width="3.3" height="3.3"/>
		<polygon points="63.6,1113.9 60.3,1113.9 60.3,1117.2 60.3,1120.5 60.3,1123.8 63.6,1123.8 66.9,1123.8 70.3,1123.8 70.3,1120.5 
			70.3,1117.2 70.3,1113.9 66.9,1113.9 		"/>
		<polygon points="93.5,1120.5 93.5,1117.2 90.1,1117.2 90.1,1113.9 90.1,1110.6 86.8,1110.6 86.8,1107.3 86.8,1103.9 83.5,1103.9 
			83.5,1100.6 86.8,1100.6 86.8,1103.9 90.1,1103.9 90.1,1100.6 93.5,1100.6 93.5,1097.3 93.5,1094 93.5,1090.7 93.5,1087.4 
			96.8,1087.4 96.8,1090.7 100.1,1090.7 100.1,1087.4 100.1,1084.1 103.4,1084.1 103.4,1080.7 100.1,1080.7 100.1,1077.4 
			103.4,1077.4 103.4,1074.1 100.1,1074.1 96.8,1074.1 93.5,1074.1 93.5,1070.8 90.1,1070.8 90.1,1067.5 90.1,1064.2 90.1,1060.9 
			86.8,1060.9 86.8,1057.5 83.5,1057.5 83.5,1060.9 80.2,1060.9 80.2,1064.2 80.2,1067.5 80.2,1070.8 80.2,1074.1 83.5,1074.1 
			83.5,1070.8 83.5,1067.5 83.5,1064.2 86.8,1064.2 86.8,1067.5 86.8,1070.8 86.8,1074.1 90.1,1074.1 90.1,1077.4 90.1,1080.7 
			90.1,1084.1 86.8,1084.1 83.5,1084.1 83.5,1080.7 80.2,1080.7 80.2,1077.4 80.2,1074.1 76.9,1074.1 73.6,1074.1 73.6,1077.4 
			76.9,1077.4 76.9,1080.7 73.6,1080.7 73.6,1077.4 70.3,1077.4 70.3,1080.7 66.9,1080.7 63.6,1080.7 63.6,1084.1 66.9,1084.1 
			70.3,1084.1 73.6,1084.1 76.9,1084.1 80.2,1084.1 80.2,1087.4 83.5,1087.4 86.8,1087.4 86.8,1090.7 90.1,1090.7 90.1,1094 
			86.8,1094 83.5,1094 83.5,1097.3 80.2,1097.3 80.2,1100.6 80.2,1103.9 80.2,1107.3 80.2,1110.6 83.5,1110.6 83.5,1113.9 
			83.5,1117.2 80.2,1117.2 80.2,1120.5 83.5,1120.5 83.5,1123.8 86.8,1123.8 90.1,1123.8 90.1,1120.5 		"/>
		<rect x="100.1" y="1120.5" width="3.3" height="3.3"/>
		<rect x="133.2" y="1120.5" width="3.3" height="3.3"/>
		<polygon points="80.2,1127.2 80.2,1130.5 83.5,1130.5 83.5,1127.2 83.5,1123.8 80.2,1123.8 		"/>
		<polygon points="93.5,1123.8 90.1,1123.8 90.1,1127.2 90.1,1130.5 93.5,1130.5 96.8,1130.5 100.1,1130.5 100.1,1127.2 
			100.1,1123.8 96.8,1123.8 		"/>
		<polygon points="116.7,1123.8 113.3,1123.8 110,1123.8 110,1120.5 106.7,1120.5 106.7,1123.8 106.7,1127.2 103.4,1127.2 
			103.4,1130.5 106.7,1130.5 110,1130.5 110,1127.2 113.3,1127.2 113.3,1130.5 116.7,1130.5 120,1130.5 120,1127.2 116.7,1127.2 		
			"/>
		<polygon points="129.9,1127.2 129.9,1130.5 133.2,1130.5 136.5,1130.5 136.5,1127.2 133.2,1127.2 		"/>
	</g>
	<text transform="matrix(1 0 0 1 45.6479 1155.8181)" class="st4 st5 st6">bit.ly/fdm-basico</text>
</g>
<g>
	<ellipse cx="646" cy="1113.1" rx="45" ry="45.1"/>
	<g>
		<path class="st4" d="M662.3,1083c-7.8-6-24.8-5.3-32.5,1.4c-5,4.3-5.6,10.3-1.8,17l4.8,8.1l0.5-1.7l0.2-0.4l-4.1-6.8
			c-3.4-6-2.9-11.2,1.4-14.9c7.2-6.2,23.2-6.9,30.5-1.3c3.7,2.9,4.4,6.9,2,11.8c-0.3,0.4,0,0.9,0.4,1.1c0.4,0.3,0.9,0,1.1-0.4
			C667.5,1091.4,666.7,1086.4,662.3,1083z"/>
		<path class="st4" d="M645.2,1118.3l0.8-1.5l0.2-0.3l-8.5-15.8c-0.2-0.3-0.4-0.4-0.8-0.4c-0.3,0-0.6,0.3-0.8,0.6l-2.3,7.2l-0.7,2.2
			l-4.7,15c-0.1,0.4,0.1,0.9,0.6,1.1c0.1,0,0.2,0.1,0.3,0.1c0.3,0,0.7-0.3,0.8-0.6l4.3-13.5l0.8-2.2l2.1-6.7L645.2,1118.3z"/>
		<g>
			<polyline class="st4" points="646.5,1120.8 646.5,1120.8 646.6,1120.7 			"/>
			<path class="st4" d="M662.7,1100.4c-0.4-0.3-0.9-0.1-1.1,0.3l-3,5.9l-1.1,2.2l-7.6,14.5l-1.9-3.6l-0.8,1.4l-0.3,0.4l2.2,4.1
				c0.2,0.3,0.4,0.4,0.8,0.4c0.3,0,0.6-0.2,0.8-0.4l7.6-14.4l1.1-2.1l3.9-7.4C663.3,1101.1,663.1,1100.6,662.7,1100.4z"/>
		</g>
		<path class="st4" d="M647.5,1119l8.3-15.7l1.4,4.7l0.8-1.6l0.3-0.5l-1.5-5c-0.1-0.3-0.4-0.6-0.8-0.6c-0.3-0.1-0.7,0.1-0.8,0.4
			l-8.6,16.4l-1,1.8l-2.5,4.6l-7.6-12.9l-0.5,1.7l-0.2,0.5l7.6,12.8c0.2,0.3,0.4,0.4,0.8,0.4c0.3,0,0.6-0.2,0.8-0.4l2.6-5
			L647.5,1119z"/>
		<path class="st4" d="M664.3,1125.8l-5-16.2l-0.8,1.7l-0.3,0.4l4.4,14.6c2.4,8.5-1.4,13.3-5,15.7c-7,4.8-18.8,4.8-25.2,0
			c-2.7-2-5.5-5.8-3.6-12c0.1-0.4-0.1-0.9-0.6-1.1c-0.4-0.1-0.9,0.1-1.1,0.6c-1.8,5.6-0.3,10.6,4.1,13.9c3.5,2.6,8.4,3.9,13.5,3.9
			c5,0,10-1.3,13.7-3.9C664.4,1139.5,666.4,1133.2,664.3,1125.8z"/>
	</g>
</g>
</svg>
